<svg xmlns="http://www.w3.org/2000/svg" xmlns:xlink="http://www.w3.org/1999/xlink" width="1080" zoomAndPan="magnify" viewBox="0 0 810 809.999993" height="1080" preserveAspectRatio="xMidYMid meet" version="1.0"><defs><filter x="0%" y="0%" width="100%" height="100%" id="af21877819"><feColorMatrix values="0 0 0 0 1 0 0 0 0 1 0 0 0 0 1 0 0 0 1 0" color-interpolation-filters="sRGB"/></filter><mask id="9cea3d4f75"><g filter="url(#af21877819)"><rect x="-81" width="972" fill="#000000" y="-80.999999" height="971.999992" fill-opacity="0.26"/></g></mask><clipPath id="62f03017a9"><path d="M 0.746094 0.238281 L 674.996094 0.238281 L 674.996094 809.761719 L 0.746094 809.761719 Z M 0.746094 0.238281 " clip-rule="nonzero"/></clipPath><clipPath id="aa8ba918e6"><rect x="0" width="676" y="0" height="810"/></clipPath></defs><g mask="url(#9cea3d4f75)"><g transform="matrix(1, 0, 0, 1, 67, 0.000000000000039746)"><g clip-path="url(#aa8ba918e6)"><g clip-path="url(#62f03017a9)"><path fill="#ffffff" d="M 0.746094 523.296875 C 0.746094 446.507812 21.5 384.246094 54.707031 336.511719 C 54.707031 430.941406 77.535156 464.148438 127.34375 464.148438 C 160.550781 464.148438 194.796875 439.246094 194.796875 396.699219 C 194.796875 358.304688 168.855469 288.777344 168.855469 214.0625 C 168.855469 139.347656 193.757812 59.445312 295.453125 0.296875 C 272.625 60.480469 263.285156 111.328125 263.285156 152.835938 C 263.285156 262.835938 329.699219 312.644531 388.847656 312.644531 C 436.582031 312.644531 486.390625 281.511719 486.390625 191.234375 C 518.558594 226.515625 533.085938 266.984375 533.085938 307.457031 C 533.085938 371.792969 497.804688 428.867188 497.804688 480.753906 C 497.804688 523.296875 532.050781 548.203125 565.257812 548.203125 C 624.40625 548.203125 642.046875 495.28125 642.046875 408.113281 C 659.6875 438.207031 675.253906 497.355469 675.253906 548.203125 C 675.253906 699.707031 532.050781 809.703125 372.242188 809.703125 C 507.144531 758.855469 532.050781 691.40625 532.050781 615.652344 C 498.84375 674.804688 464.597656 683.105469 447.996094 683.105469 C 346.300781 683.105469 456.296875 489.054688 278.851562 354.152344 C 307.90625 416.414062 319.320312 470.375 319.320312 513.957031 C 319.320312 607.351562 268.472656 658.199219 219.699219 658.199219 C 178.191406 658.199219 136.683594 624.992188 120.082031 554.429688 C 120.082031 653.011719 149.136719 746.40625 278.851562 809.703125 C 76.496094 776.5 0.746094 649.898438 0.746094 523.296875 Z M 0.746094 523.296875 " fill-opacity="1" fill-rule="nonzero"/></g></g></g></g></svg>