<svg width="48" height="48" viewBox="0 0 48 48" fill="none" xmlns="http://www.w3.org/2000/svg">
<path d="M30.8325 22.7513L21.8325 16.7513C21.6065 16.6005 21.3439 16.5139 21.0726 16.5008C20.8013 16.4876 20.5315 16.5484 20.292 16.6766C20.0526 16.8048 19.8524 16.9957 19.7129 17.2287C19.5734 17.4618 19.4998 17.7284 19.5 18V30C19.4998 30.2716 19.5734 30.5382 19.7129 30.7713C19.8524 31.0044 20.0526 31.1952 20.292 31.3234C20.5315 31.4516 20.8013 31.5124 21.0726 31.4992C21.3439 31.4861 21.6065 31.3995 21.8325 31.2488L30.8325 25.2488C31.0383 25.1118 31.207 24.9262 31.3237 24.7083C31.4404 24.4905 31.5015 24.2472 31.5015 24C31.5015 23.7529 31.4404 23.5095 31.3237 23.2917C31.207 23.0738 31.0383 22.8882 30.8325 22.7513ZM22.5 27.1969V20.8125L27.2962 24L22.5 27.1969ZM43.9369 13.035C43.7602 12.3438 43.4217 11.7045 42.9493 11.1698C42.4769 10.6352 41.8842 10.2205 41.22 9.96001C34.7925 7.47751 24.5625 7.50001 24 7.50001C23.4375 7.50001 13.2075 7.47751 6.78 9.96001C6.11581 10.2205 5.52306 10.6352 5.05068 11.1698C4.57829 11.7045 4.2398 12.3438 4.06313 13.035C3.5775 14.9063 3 18.3263 3 24C3 29.6738 3.5775 33.0938 4.06313 34.965C4.23953 35.6566 4.57791 36.2963 5.05031 36.8313C5.52271 37.3663 6.11559 37.7812 6.78 38.0419C12.9375 40.4175 22.575 40.5 23.8762 40.5H24.1238C25.425 40.5 35.0681 40.4175 41.22 38.0419C41.8844 37.7812 42.4773 37.3663 42.9497 36.8313C43.4221 36.2963 43.7605 35.6566 43.9369 34.965C44.4225 33.09 45 29.6738 45 24C45 18.3263 44.4225 14.9063 43.9369 13.035ZM41.0325 34.2225C40.9754 34.4526 40.8645 34.6658 40.709 34.8447C40.5536 35.0236 40.3579 35.1632 40.1381 35.2519C34.2038 37.5431 24.1106 37.5019 24.0131 37.5019H24C23.8988 37.5019 13.8131 37.5394 7.875 35.2519C7.65519 35.1632 7.45954 35.0236 7.30408 34.8447C7.14861 34.6658 7.03777 34.4526 6.98062 34.2225C6.525 32.5106 6 29.3569 6 24C6 18.6431 6.525 15.4894 6.9675 13.7869C7.02358 13.5555 7.13395 13.3407 7.28947 13.1604C7.44499 12.9801 7.6412 12.8394 7.86188 12.75C13.5844 10.5394 23.1731 10.5 23.9587 10.5H24.0094C24.1106 10.5 34.2056 10.4663 40.1344 12.75C40.3542 12.8387 40.5498 12.9783 40.7053 13.1572C40.8608 13.3361 40.9716 13.5493 41.0288 13.7794C41.475 15.4894 42 18.6431 42 24C42 29.3569 41.475 32.5106 41.0325 34.2131V34.2225Z" fill="white"/>
</svg>
